# This file uses centimeters as units for non-parametric coordinates.

mtllib Carton-1_Low_UV.mtl
g default
v -0.082151 -0.117638 0.117638
v -0.082151 0.117638 0.117638
v -0.082151 -0.117638 -0.117638
v -0.082151 0.117638 -0.117638
v 0.082151 -0.117638 0.117638
v 0.082151 0.117638 0.117638
v 0.082151 -0.117638 -0.117638
v 0.082151 0.117638 -0.117638
v -0.082151 0.061223 0.172264
v 0.082151 0.069936 0.187479
v -0.082151 0.077771 -0.178338
v 0.082151 0.053321 -0.178338
v 0.100033 0.062804 0.117638
v 0.118302 0.062804 -0.117638
v -0.127245 0.074256 0.117638
v -0.110103 0.074256 -0.117638
vt 0.331409 0.001992
vt 0.331409 0.331625
vt 0.001776 0.331625
vt 0.001776 0.001992
vt 0.560221 0.335184
vt 0.889853 0.335184
vt 0.889853 0.664816
vt 0.560221 0.664816
vt 0.083420 0.335184
vt 0.083420 0.664816
vt 0.006595 0.664816
vt 0.006595 0.335184
vt 0.088890 0.335184
vt 0.319085 0.335184
vt 0.319085 0.664816
vt 0.088890 0.664816
vt 0.337334 0.331625
vt 0.337334 0.001992
vt 0.567529 0.001992
vt 0.567529 0.331625
vt 0.554750 0.335184
vt 0.554750 0.664816
vt 0.324555 0.664816
vt 0.324555 0.335184
vt 0.167572 0.668375
vt 0.167572 0.898570
vt 0.091039 0.898570
vt 0.069722 0.668375
vt 0.173987 0.898570
vt 0.173987 0.668375
vt 0.259030 0.668375
vt 0.259030 0.898570
vt 0.062556 0.668375
vt 0.062556 0.998008
vt 0.001776 0.998008
vt 0.001776 0.668375
vn -1.000000 0.000000 0.000000
vn -1.000000 0.000000 0.000000
vn -1.000000 0.000000 0.000000
vn -1.000000 0.000000 0.000000
vn 0.000000 0.000000 -1.000000
vn 0.000000 0.000000 -1.000000
vn 0.000000 0.000000 -1.000000
vn 0.000000 0.000000 -1.000000
vn 1.000000 0.000000 0.000000
vn 1.000000 0.000000 0.000000
vn 1.000000 0.000000 0.000000
vn 1.000000 0.000000 0.000000
vn 0.000000 0.000000 1.000000
vn 0.000000 0.000000 1.000000
vn 0.000000 0.000000 1.000000
vn 0.000000 0.000000 1.000000
vn 0.000000 -1.000000 0.000000
vn 0.000000 -1.000000 0.000000
vn 0.000000 -1.000000 0.000000
vn 0.000000 -1.000000 0.000000
vn -0.049999 0.766087 0.640789
vn -0.049999 0.766087 0.640789
vn -0.049999 0.766087 0.640789
vn -0.049999 0.766087 0.640789
vn 0.056399 0.757681 -0.650184
vn 0.056399 0.757681 -0.650184
vn 0.056399 0.757681 -0.650184
vn 0.056399 0.757681 -0.650184
vn -0.896490 -0.441695 -0.034800
vn -0.896490 -0.441695 -0.034800
vn -0.896490 -0.441695 -0.034800
vn -0.896490 -0.441695 -0.034800
vn 0.764691 -0.643793 0.027900
vn 0.764691 -0.643793 0.027900
vn 0.764691 -0.643793 0.027900
vn 0.764691 -0.643793 0.027900
s off
g box_1:Mesh
usemtl initialShadingGroup
f 1/1/1 2/2/2 4/3/3 3/4/4
f 3/17/5 4/18/6 8/19/7 7/20/8
f 7/5/9 8/6/10 6/7/11 5/8/12
f 5/21/13 6/22/14 2/23/15 1/24/16
f 3/13/17 7/14/18 5/15/19 1/16/20
f 6/25/21 2/26/22 9/27/23 10/28/24
f 4/29/25 8/30/26 12/31/27 11/32/28
f 6/9/29 8/10/30 14/11/31 13/12/32
f 4/33/33 2/34/34 15/35/35 16/36/36
