# This file uses centimeters as units for non-parametric coordinates.

mtllib Carton-2_Low_UV.mtl
g default
v 1.000000 -0.009487 -1.000000
v 1.000000 -0.009487 1.000000
v -1.000000 -0.009487 1.000000
v -1.000000 -0.009487 -1.000000
v 1.000000 1.001030 -0.999999
v 0.999999 1.001030 1.000001
v -1.000000 1.001030 1.000000
v -1.000000 1.001030 -1.000000
vt 0.842200 0.552900
vt 0.842200 0.788600
vt 0.606600 0.788600
vt 0.606600 0.552900
vt 0.434100 0.788600
vt 0.198500 0.788600
vt 0.198500 0.552900
vt 0.434100 0.552900
vt 0.735300 0.329400
vt 0.735300 0.449300
vt 0.498000 0.449300
vt 0.498000 0.329400
vt 0.260800 0.449300
vt 0.260800 0.329400
vt 0.023500 0.449300
vt 0.023500 0.329400
vt 0.972600 0.329400
vt 0.972600 0.449300
vn 0.000000 -1.000000 0.000000
vn 0.000000 -1.000000 0.000000
vn 0.000000 -1.000000 0.000000
vn 0.000000 -1.000000 0.000000
vn 0.000000 1.000000 0.000000
vn 0.000000 1.000000 0.000000
vn 0.000000 1.000000 0.000000
vn 0.000000 1.000000 0.000000
vn 1.000000 0.000000 0.000000
vn 1.000000 0.000000 0.000000
vn 1.000000 0.000000 0.000000
vn 1.000000 0.000000 0.000000
vn 0.000000 0.000000 1.000000
vn 0.000000 0.000000 1.000000
vn 0.000000 0.000000 1.000000
vn 0.000000 0.000000 1.000000
vn -1.000000 0.000000 0.000000
vn -1.000000 0.000000 0.000000
vn -1.000000 0.000000 0.000000
vn -1.000000 0.000000 0.000000
vn 0.000000 0.000000 -1.000000
vn 0.000000 0.000000 -1.000000
vn 0.000000 0.000000 -1.000000
vn 0.000000 0.000000 -1.000000
s off
g Box_3:Mesh
usemtl initialShadingGroup
f 1/1/1 2/2/2 3/3/3 4/4/4
f 5/5/5 8/6/6 7/7/7 6/8/8
f 1/9/9 5/10/10 6/11/11 2/12/12
f 2/12/13 6/11/14 7/13/15 3/14/16
f 3/14/17 7/13/18 8/15/19 4/16/20
f 5/10/21 1/9/22 4/17/23 8/18/24
