# This file uses centimeters as units for non-parametric coordinates.

mtllib Planche-2_Low_UV.mtl
g default
v 31.163342 -52.525993 0.990746
v 31.163357 -11.311209 1.884957
v 31.163357 2.709390 0.993375
v 31.163357 2.709390 4.317596
v 31.163357 -11.311209 4.317596
v 31.163342 -52.525993 4.317596
v 38.344856 56.701698 1.462831
v 38.294228 56.256279 0.990747
v 38.691811 56.490807 1.462831
v 31.415329 53.001595 0.990746
v 31.163357 53.303829 1.462829
v 34.646667 -54.489487 0.990746
v 34.941795 -54.757332 1.462830
v 31.163334 -57.062710 1.462829
v 31.054592 -56.681190 0.990746
v 34.941795 -54.757332 3.845513
v 34.646667 -54.489487 4.317597
v 31.054592 -56.681190 4.317596
v 31.163334 -57.062710 3.845513
v 38.294228 56.256279 4.317598
v 38.344856 56.701698 3.845514
v 38.691811 56.490807 3.845514
v 31.163357 53.303829 3.845513
v 31.415329 53.001595 4.317596
v 38.131344 4.862357 1.465640
v 37.737804 4.847383 0.993377
v 26.221209 47.416557 1.462829
v 25.979191 46.744263 1.462829
v 26.369617 46.990971 0.990745
v 26.675795 2.929151 1.465458
v 27.069548 2.926180 0.993374
v 25.180418 -56.501755 0.990745
v 24.784924 -56.491772 1.462828
v 25.207018 -56.880791 1.462828
v 25.207018 -56.880791 3.845512
v 24.784924 -56.491772 3.845511
v 25.180418 -56.501755 4.317595
v 38.719654 -51.763565 4.667535
v 38.325962 -51.665092 5.139619
v 24.393124 -51.330338 3.845511
v 24.787477 -51.325424 4.317595
v 26.369617 46.990971 4.317595
v 25.979191 46.744263 3.845512
v 26.221209 47.416557 3.845512
v 38.719654 -51.763565 2.284852
v 38.325962 -51.665092 1.812768
v 37.978806 -10.778271 4.738640
v 37.586029 -10.814525 4.317598
v 25.107056 -10.778271 3.845512
v 25.500477 -10.792517 4.317595
v 24.393124 -51.330338 1.462828
v 24.787477 -51.325424 0.990744
v 37.978806 -10.778271 2.358127
v 37.586029 -10.814525 1.884958
v 38.131344 4.862357 3.845159
v 37.737656 4.847351 4.317598
v 26.675795 2.929151 3.845512
v 27.069548 2.926180 4.317596
v 25.107056 -10.778271 2.357039
v 25.500477 -10.792517 1.884956
v 37.001564 -23.179010 1.884958
v 37.394890 -23.179010 2.357469
v 37.394890 -23.179010 3.845086
v 37.001564 -23.179010 4.317597
v 31.163347 -23.179010 4.317596
v 25.674620 -23.179010 4.317595
v 25.280621 -23.179010 3.845512
v 25.280619 -23.179010 2.357039
v 25.674620 -23.179010 1.884956
v 31.163345 -23.179010 1.884957
vt 0.298669 0.909237
vt 0.319530 0.909237
vt 0.298669 0.915123
vt 0.298692 0.525633
vt 0.319530 0.915123
vt 0.294536 0.911397
vt 0.294559 0.525607
vt 0.319530 0.525633
vt 0.323663 0.911397
vt 0.298669 0.966667
vt 0.294536 0.964021
vt 0.302365 0.405498
vt 0.306498 0.405623
vt 0.323663 0.525607
vt 0.323663 0.964021
vt 0.319530 0.966667
vt 0.319530 0.405623
vt 0.323663 0.405498
vt 0.306498 0.297054
vt 0.302365 0.297054
vt 0.319530 0.297054
vt 0.294536 0.050630
vt 0.319530 0.050587
vt 0.323663 0.297054
vt 0.298669 0.050587
vt 0.323663 0.050630
vt 0.298669 0.005398
vt 0.319530 0.005398
vt 0.294536 0.005311
vt 0.323663 0.005311
vt 0.298669 0.001992
vt 0.319530 0.001992
vt 0.012135 0.996162
vt 0.012138 0.544151
vt 0.032996 0.996162
vt 0.008002 0.994108
vt 0.032971 0.544151
vt 0.012135 0.998008
vt 0.008002 0.544019
vt 0.025157 0.407216
vt 0.037129 0.994108
vt 0.032996 0.998008
vt 0.004316 0.407216
vt 0.037106 0.544020
vt 0.012139 0.298646
vt 0.029300 0.406898
vt 0.025163 0.298646
vt 0.025799 0.048386
vt 0.029300 0.298646
vt 0.004938 0.048386
vt 0.029932 0.049249
vt 0.012135 0.022176
vt 0.000805 0.049249
vt 0.032996 0.022176
vt 0.008002 0.298646
vt 0.037129 0.024521
vt 0.032996 0.001992
vt 0.012135 0.001992
vt 0.334910 0.068148
vt 0.355770 0.068148
vt 0.334910 0.120296
vt 0.355770 0.120296
vt 0.330776 0.069100
vt 0.359903 0.069100
vt 0.330776 0.120529
vt 0.330776 0.037651
vt 0.359903 0.120529
vt 0.359903 0.037651
vt 0.334910 0.035067
vt 0.355770 0.035067
vt 0.367100 0.005439
vt 0.362967 0.001992
vt 0.378398 0.005030
vt 0.399259 0.005030
vt 0.378398 0.067904
vt 0.399259 0.067904
vt 0.374265 0.005473
vt 0.403392 0.005473
vt 0.374265 0.065698
vt 0.378398 0.001992
vt 0.403392 0.065698
vt 0.399259 0.001992
vt 0.227533 0.030487
vt 0.225327 0.470799
vt 0.183357 0.083110
vt 0.282887 0.452081
vt 0.189485 0.468901
vt 0.287758 0.001992
vt 0.281558 0.589202
vt 0.175748 0.589009
vt 0.225327 0.593550
vt 0.276441 0.697454
vt 0.177272 0.697454
vt 0.225327 0.697454
vt 0.288036 0.946852
vt 0.169505 0.943878
vt 0.225327 0.954389
vt 0.255823 0.971579
vt 0.172946 0.989197
vt 0.224374 0.990768
vt 0.102502 0.962273
vt 0.058327 0.909650
vt 0.100296 0.521961
vt 0.064455 0.523859
vt 0.157855 0.540679
vt 0.050717 0.403751
vt 0.162728 0.990768
vt 0.156527 0.403558
vt 0.100296 0.399210
vt 0.159966 0.403876
vt 0.052242 0.295306
vt 0.151410 0.295306
vt 0.154854 0.295306
vt 0.100296 0.295306
vt 0.044475 0.048882
vt 0.163006 0.045908
vt 0.100296 0.038371
vt 0.047915 0.003563
vt 0.130793 0.021181
vt 0.099344 0.001992
vn -0.389968 0.915386 -0.099966
vn -0.389968 0.915386 0.099965
vn 0.994385 -0.002234 -0.105798
vn 0.994385 -0.002234 -0.105798
vn -0.389968 0.915386 0.099965
vn 0.994385 -0.002234 0.105799
vn -0.004280 0.005576 -0.999975
vn -0.603693 0.787411 -0.124651
vn 0.109694 0.007058 -0.993940
vn 0.109694 0.007058 -0.993940
vn -0.603693 0.787411 -0.124651
vn -0.389968 0.915386 -0.099966
vn 0.994385 -0.002234 -0.105798
vn 0.990272 -0.006391 -0.138995
vn 0.109694 0.007058 -0.993940
vn 0.109694 0.007058 -0.993940
vn 0.990272 -0.006391 -0.138995
vn 0.059783 -0.005120 -0.998198
vn -0.047358 0.002064 -0.998876
vn -0.772380 0.615853 -0.155417
vn -0.004280 0.005576 -0.999975
vn -0.004280 0.005576 -0.999975
vn -0.772380 0.615853 -0.155417
vn -0.603693 0.787411 -0.124651
vn 0.120404 -0.015736 -0.992600
vn 0.135746 0.012819 -0.990661
vn 0.577907 -0.805329 -0.132173
vn 0.577907 -0.805329 -0.132173
vn 0.135746 0.012819 -0.990661
vn 0.985123 -0.099488 -0.140124
vn 0.577907 -0.805329 -0.132173
vn 0.211209 -0.970035 -0.120098
vn 0.120404 -0.015736 -0.992600
vn 0.120404 -0.015736 -0.992600
vn 0.211209 -0.970035 -0.120098
vn 0.037581 -0.099189 -0.994359
vn 0.211209 -0.970035 -0.120098
vn -0.082036 -0.988157 -0.129678
vn 0.037581 -0.099189 -0.994359
vn 0.037581 -0.099189 -0.994359
vn -0.082036 -0.988157 -0.129678
vn -0.071328 -0.083934 -0.993915
vn 0.985189 -0.086354 0.148142
vn 0.017212 0.002780 0.999848
vn 0.563559 -0.818062 0.114784
vn 0.563559 -0.818062 0.114784
vn 0.017212 0.002780 0.999848
vn 0.025878 -0.195813 0.980300
vn 0.014094 -0.140213 0.990021
vn 0.211209 -0.970035 0.120098
vn 0.025878 -0.195813 0.980300
vn 0.025878 -0.195813 0.980300
vn 0.211209 -0.970035 0.120098
vn 0.563559 -0.818062 0.114784
vn -0.071328 -0.083934 0.993915
vn -0.082036 -0.988157 0.129678
vn 0.014094 -0.140213 0.990021
vn 0.014094 -0.140213 0.990021
vn -0.082036 -0.988157 0.129678
vn 0.211209 -0.970035 0.120098
vn 0.048375 -0.000075 0.998829
vn 0.989924 -0.004995 0.141512
vn 0.109652 0.007078 0.993945
vn 0.109652 0.007078 0.993945
vn 0.989924 -0.004995 0.141512
vn 0.994385 -0.002234 0.105799
vn -0.389968 0.915386 0.099965
vn -0.603707 0.787406 0.124618
vn 0.109652 0.007078 0.993945
vn 0.109652 0.007078 0.993945
vn -0.603707 0.787406 0.124618
vn -0.004304 0.005620 0.999975
vn -0.603707 0.787406 0.124618
vn -0.772380 0.615853 0.155417
vn -0.004304 0.005620 0.999975
vn -0.004304 0.005620 0.999975
vn -0.772380 0.615853 0.155417
vn -0.047358 0.002064 0.998876
vn 0.990272 -0.006391 -0.138995
vn 0.989407 -0.019529 -0.143848
vn 0.059783 -0.005120 -0.998198
vn 0.059783 -0.005120 -0.998198
vn 0.989407 -0.019529 -0.143848
vn 0.076667 -0.024932 -0.996745
vn -0.986303 -0.004976 -0.164870
vn -0.986303 -0.004976 0.164869
vn -0.772380 0.615853 -0.155417
vn -0.772380 0.615853 -0.155417
vn -0.986303 -0.004976 0.164869
vn -0.772380 0.615853 0.155417
vn -0.047358 0.002064 -0.998876
vn -0.087888 -0.006849 -0.996107
vn -0.986303 -0.004976 -0.164870
vn -0.986303 -0.004976 -0.164870
vn -0.087888 -0.006849 -0.996107
vn -0.989795 0.004189 -0.142440
vn -0.087888 -0.006849 -0.996107
vn -0.089762 -0.018931 -0.995783
vn -0.989795 0.004189 -0.142440
vn -0.989795 0.004189 -0.142440
vn -0.089762 -0.018931 -0.995783
vn -0.984705 0.035207 -0.170637
vn -0.987395 0.016283 -0.157437
vn -0.067695 0.028515 -0.997299
vn -0.981420 -0.136213 -0.135130
vn -0.981420 -0.136213 -0.135130
vn -0.067695 0.028515 -0.997299
vn -0.071328 -0.083934 -0.993915
vn -0.082036 -0.988157 -0.129678
vn -0.082036 -0.988157 0.129678
vn -0.981420 -0.136213 -0.135130
vn -0.981420 -0.136213 -0.135130
vn -0.082036 -0.988157 0.129678
vn -0.981421 -0.136190 0.135151
vn -0.071328 -0.083934 0.993915
vn -0.070973 0.001097 0.997478
vn -0.981421 -0.136190 0.135151
vn -0.981421 -0.136190 0.135151
vn -0.070973 0.001097 0.997478
vn -0.987903 0.012172 0.154594
vn 0.984234 -0.015951 0.176150
vn 0.003915 -0.000152 0.999992
vn 0.985203 0.020560 0.170156
vn 0.985203 0.020560 0.170156
vn 0.003915 -0.000152 0.999992
vn 0.004487 0.010021 0.999940
vn -0.073742 0.001079 0.997277
vn -0.087577 0.003112 0.996153
vn -0.984434 0.017266 0.174903
vn -0.984434 0.017266 0.174903
vn -0.087577 0.003112 0.996153
vn -0.984092 0.038782 0.173375
vn -0.989885 0.005419 0.141771
vn -0.087586 0.000584 0.996157
vn -0.986303 -0.004976 0.164869
vn -0.986303 -0.004976 0.164869
vn -0.087586 0.000584 0.996157
vn -0.047358 0.002064 0.998876
vn 0.103855 0.011986 -0.994520
vn 0.076667 -0.024932 -0.996745
vn 0.986585 0.016063 -0.162454
vn 0.986585 0.016063 -0.162454
vn 0.076667 -0.024932 -0.996745
vn 0.989407 -0.019529 -0.143848
vn 0.989924 -0.004995 0.141512
vn 0.048375 -0.000075 0.998829
vn 0.984234 -0.015951 0.176150
vn 0.984234 -0.015951 0.176150
vn 0.048375 -0.000075 0.998829
vn 0.003915 -0.000152 0.999992
vn -0.087586 0.000584 0.996157
vn -0.989885 0.005419 0.141771
vn -0.087577 0.003112 0.996153
vn -0.087577 0.003112 0.996153
vn -0.989885 0.005419 0.141771
vn -0.984092 0.038782 0.173375
vn -0.984705 0.035207 -0.170637
vn -0.089762 -0.018931 -0.995783
vn -0.984788 0.020671 -0.172524
vn -0.984788 0.020671 -0.172524
vn -0.089762 -0.018931 -0.995783
vn -0.072386 0.020882 -0.997158
vn -0.004280 0.005576 -0.999975
vn 0.000843 -0.008904 -0.999960
vn -0.047358 0.002064 -0.998876
vn -0.047358 0.002064 -0.998876
vn 0.000843 -0.008904 -0.999960
vn -0.087888 -0.006849 -0.996107
vn 0.211209 -0.970035 -0.120098
vn 0.211209 -0.970035 0.120098
vn -0.082036 -0.988157 -0.129678
vn -0.082036 -0.988157 -0.129678
vn 0.211209 -0.970035 0.120098
vn -0.082036 -0.988157 0.129678
vn -0.004304 0.005620 0.999975
vn -0.047358 0.002064 0.998876
vn 0.000000 0.000000 1.000000
vn 0.000000 0.000000 1.000000
vn -0.047358 0.002064 0.998876
vn -0.087586 0.000584 0.996157
vn -0.603707 0.787406 0.124618
vn -0.603693 0.787411 -0.124651
vn -0.772380 0.615853 0.155417
vn -0.772380 0.615853 0.155417
vn -0.603693 0.787411 -0.124651
vn -0.772380 0.615853 -0.155417
vn -0.986303 -0.004976 -0.164870
vn -0.989795 0.004189 -0.142440
vn -0.986303 -0.004976 0.164869
vn -0.986303 -0.004976 0.164869
vn -0.989795 0.004189 -0.142440
vn -0.989885 0.005419 0.141771
vn 0.994385 -0.002234 0.105799
vn 0.989924 -0.004995 0.141512
vn 0.994385 -0.002234 -0.105798
vn 0.994385 -0.002234 -0.105798
vn 0.989924 -0.004995 0.141512
vn 0.990272 -0.006391 -0.138995
vn 0.985189 -0.086354 0.148142
vn 0.563559 -0.818062 0.114784
vn 0.985123 -0.099488 -0.140124
vn 0.985123 -0.099488 -0.140124
vn 0.563559 -0.818062 0.114784
vn 0.577907 -0.805329 -0.132173
vn 0.014094 -0.140213 0.990021
vn -0.032197 0.001726 0.999480
vn -0.071328 -0.083934 0.993915
vn -0.071328 -0.083934 0.993915
vn -0.032197 0.001726 0.999480
vn -0.070973 0.001097 0.997478
vn -0.987395 0.016283 -0.157437
vn -0.981420 -0.136213 -0.135130
vn -0.987903 0.012172 0.154594
vn -0.987903 0.012172 0.154594
vn -0.981420 -0.136213 -0.135130
vn -0.981421 -0.136190 0.135151
vn 0.037581 -0.099189 -0.994359
vn -0.071328 -0.083934 -0.993915
vn 0.032514 0.025161 -0.999155
vn 0.032514 0.025161 -0.999155
vn -0.071328 -0.083934 -0.993915
vn -0.067695 0.028515 -0.997299
vn 0.984234 -0.015951 0.176150
vn 0.985203 0.020560 0.170156
vn 0.989407 -0.019529 -0.143848
vn 0.989407 -0.019529 -0.143848
vn 0.985203 0.020560 0.170156
vn 0.986585 0.016063 -0.162454
vn -0.021341 0.004245 0.999763
vn 0.000000 0.000000 1.000000
vn -0.073742 0.001079 0.997277
vn -0.073742 0.001079 0.997277
vn 0.000000 0.000000 1.000000
vn -0.087577 0.003112 0.996153
vn -0.984705 0.035207 -0.170637
vn -0.984788 0.020671 -0.172524
vn -0.984092 0.038782 0.173375
vn -0.984092 0.038782 0.173375
vn -0.984788 0.020671 -0.172524
vn -0.984434 0.017266 0.174903
vn 0.021617 0.015431 -0.999647
vn -0.072386 0.020882 -0.997158
vn 0.001755 -0.020871 -0.999781
vn 0.001755 -0.020871 -0.999781
vn -0.072386 0.020882 -0.997158
vn -0.089762 -0.018931 -0.995783
vn 0.984234 -0.015951 0.176150
vn 0.989407 -0.019529 -0.143848
vn 0.989924 -0.004995 0.141512
vn 0.989924 -0.004995 0.141512
vn 0.989407 -0.019529 -0.143848
vn 0.990272 -0.006391 -0.138995
vn 0.000000 0.000000 1.000000
vn 0.000000 0.000000 1.000000
vn -0.087577 0.003112 0.996153
vn -0.087577 0.003112 0.996153
vn 0.000000 0.000000 1.000000
vn -0.087586 0.000584 0.996157
vn -0.989795 0.004189 -0.142440
vn -0.984705 0.035207 -0.170637
vn -0.989885 0.005419 0.141771
vn -0.989885 0.005419 0.141771
vn -0.984705 0.035207 -0.170637
vn -0.984092 0.038782 0.173375
vn 0.001755 -0.020871 -0.999781
vn -0.089762 -0.018931 -0.995783
vn 0.000843 -0.008904 -0.999960
vn 0.000843 -0.008904 -0.999960
vn -0.089762 -0.018931 -0.995783
vn -0.087888 -0.006849 -0.996107
vn 0.076667 -0.024932 -0.996745
vn 0.103855 0.011986 -0.994520
vn 0.001755 -0.020871 -0.999781
vn 0.001755 -0.020871 -0.999781
vn 0.103855 0.011986 -0.994520
vn 0.021617 0.015431 -0.999647
vn 0.059783 -0.005120 -0.998198
vn 0.076667 -0.024932 -0.996745
vn 0.000843 -0.008904 -0.999960
vn 0.000843 -0.008904 -0.999960
vn 0.076667 -0.024932 -0.996745
vn 0.001755 -0.020871 -0.999781
vn 0.109694 0.007058 -0.993940
vn 0.059783 -0.005120 -0.998198
vn -0.004280 0.005576 -0.999975
vn -0.004280 0.005576 -0.999975
vn 0.059783 -0.005120 -0.998198
vn 0.000843 -0.008904 -0.999960
vn -0.389968 0.915386 0.099965
vn -0.389968 0.915386 -0.099966
vn -0.603707 0.787406 0.124618
vn -0.603707 0.787406 0.124618
vn -0.389968 0.915386 -0.099966
vn -0.603693 0.787411 -0.124651
vn 0.109652 0.007078 0.993945
vn -0.004304 0.005620 0.999975
vn 0.048375 -0.000075 0.998829
vn 0.048375 -0.000075 0.998829
vn -0.004304 0.005620 0.999975
vn 0.000000 0.000000 1.000000
vn 0.048375 -0.000075 0.998829
vn 0.000000 0.000000 1.000000
vn 0.003915 -0.000152 0.999992
vn 0.003915 -0.000152 0.999992
vn 0.000000 0.000000 1.000000
vn 0.000000 0.000000 1.000000
vn 0.003915 -0.000152 0.999992
vn 0.000000 0.000000 1.000000
vn 0.004487 0.010021 0.999940
vn 0.004487 0.010021 0.999940
vn 0.000000 0.000000 1.000000
vn -0.021341 0.004245 0.999763
vn 0.017212 0.002780 0.999848
vn -0.032197 0.001726 0.999480
vn 0.025878 -0.195813 0.980300
vn 0.025878 -0.195813 0.980300
vn -0.032197 0.001726 0.999480
vn 0.014094 -0.140213 0.990021
vn 0.577907 -0.805329 -0.132173
vn 0.563559 -0.818062 0.114784
vn 0.211209 -0.970035 -0.120098
vn 0.211209 -0.970035 -0.120098
vn 0.563559 -0.818062 0.114784
vn 0.211209 -0.970035 0.120098
vn 0.135746 0.012819 -0.990661
vn 0.120404 -0.015736 -0.992600
vn 0.032514 0.025161 -0.999155
vn 0.032514 0.025161 -0.999155
vn 0.120404 -0.015736 -0.992600
vn 0.037581 -0.099189 -0.994359
vn -0.389968 0.915386 -0.099966
vn 0.994385 -0.002234 -0.105798
vn 0.109694 0.007058 -0.993940
vn 0.109652 0.007078 0.993945
vn 0.994385 -0.002234 0.105799
vn -0.389968 0.915386 0.099965
vn -0.772380 0.615853 -0.155417
vn -0.047358 0.002064 -0.998876
vn -0.986303 -0.004976 -0.164870
vn -0.071328 -0.083934 -0.993915
vn -0.082036 -0.988157 -0.129678
vn -0.981420 -0.136213 -0.135130
vn -0.082036 -0.988157 0.129678
vn -0.071328 -0.083934 0.993915
vn -0.981421 -0.136190 0.135151
vn -0.047358 0.002064 0.998876
vn -0.772380 0.615853 0.155417
vn -0.986303 -0.004976 0.164869
vn 0.103855 0.011986 -0.994520
vn 0.986585 0.016063 -0.162454
vn 0.135746 0.012819 -0.990661
vn 0.135746 0.012819 -0.990661
vn 0.986585 0.016063 -0.162454
vn 0.985123 -0.099488 -0.140124
vn 0.985189 -0.086354 0.148142
vn 0.985123 -0.099488 -0.140124
vn 0.985203 0.020560 0.170156
vn 0.985203 0.020560 0.170156
vn 0.985123 -0.099488 -0.140124
vn 0.986585 0.016063 -0.162454
vn 0.985189 -0.086354 0.148142
vn 0.985203 0.020560 0.170156
vn 0.017212 0.002780 0.999848
vn 0.017212 0.002780 0.999848
vn 0.985203 0.020560 0.170156
vn 0.004487 0.010021 0.999940
vn 0.004487 0.010021 0.999940
vn -0.021341 0.004245 0.999763
vn 0.017212 0.002780 0.999848
vn 0.017212 0.002780 0.999848
vn -0.021341 0.004245 0.999763
vn -0.032197 0.001726 0.999480
vn -0.032197 0.001726 0.999480
vn -0.021341 0.004245 0.999763
vn -0.070973 0.001097 0.997478
vn -0.070973 0.001097 0.997478
vn -0.021341 0.004245 0.999763
vn -0.073742 0.001079 0.997277
vn -0.073742 0.001079 0.997277
vn -0.984434 0.017266 0.174903
vn -0.070973 0.001097 0.997478
vn -0.070973 0.001097 0.997478
vn -0.984434 0.017266 0.174903
vn -0.987903 0.012172 0.154594
vn -0.987395 0.016283 -0.157437
vn -0.987903 0.012172 0.154594
vn -0.984788 0.020671 -0.172524
vn -0.984788 0.020671 -0.172524
vn -0.987903 0.012172 0.154594
vn -0.984434 0.017266 0.174903
vn -0.987395 0.016283 -0.157437
vn -0.984788 0.020671 -0.172524
vn -0.067695 0.028515 -0.997299
vn -0.067695 0.028515 -0.997299
vn -0.984788 0.020671 -0.172524
vn -0.072386 0.020882 -0.997158
vn 0.032514 0.025161 -0.999155
vn -0.067695 0.028515 -0.997299
vn 0.021617 0.015431 -0.999647
vn 0.021617 0.015431 -0.999647
vn -0.067695 0.028515 -0.997299
vn -0.072386 0.020882 -0.997158
vn 0.103855 0.011986 -0.994520
vn 0.135746 0.012819 -0.990661
vn 0.021617 0.015431 -0.999647
vn 0.021617 0.015431 -0.999647
vn 0.135746 0.012819 -0.990661
vn 0.032514 0.025161 -0.999155
s off
g Plache_2:polySurface165
usemtl initialShadingGroup
f 7/42/1 21/38/2 9/35/3
f 9/35/4 21/38/5 22/33/6
f 10/81/7 11/76/8 8/78/9
f 8/78/10 11/76/11 7/74/12
f 9/35/13 25/37/14 8/41/15
f 8/41/16 25/37/17 26/44/18
f 29/6/19 27/3/20 10/11/21
f 10/11/22 27/3/23 11/10/24
f 12/56/25 46/51/26 13/54/27
f 13/54/28 46/51/29 45/48/30
f 13/69/31 14/59/32 12/66/33
f 12/66/34 14/59/35 15/63/36
f 14/59/37 34/61/38 15/63/39
f 15/63/40 34/61/41 32/65/42
f 38/72/43 39/71/44 16/70/45
f 16/70/46 39/71/47 17/68/48
f 18/64/49 19/60/50 17/68/51
f 17/68/52 19/60/53 16/70/54
f 37/67/55 35/62/56 18/64/57
f 18/64/58 35/62/59 19/60/60
f 56/39/61 55/34/62 20/36/63
f 20/36/64 55/34/65 22/33/66
f 21/73/67 23/75/68 20/77/69
f 20/77/70 23/75/71 24/79/72
f 23/16/73 44/5/74 24/15/75
f 24/15/76 44/5/77 42/9/78
f 25/37/79 53/40/80 26/44/81
f 26/44/82 53/40/83 54/46/84
f 28/1/85 43/2/86 27/3/87
f 27/3/88 43/2/89 44/5/90
f 29/6/91 31/7/92 28/1/93
f 28/1/94 31/7/95 30/4/96
f 31/7/97 60/12/98 30/4/99
f 30/4/100 60/12/101 59/13/102
f 51/25/103 52/22/104 33/27/105
f 33/27/106 52/22/107 32/29/108
f 34/31/109 35/32/110 33/27/111
f 33/27/112 35/32/113 36/28/114
f 37/30/115 41/26/116 36/28/117
f 36/28/118 41/26/119 40/23/120
f 47/110/121 48/108/122 63/113/123
f 63/113/124 48/108/125 64/112/126
f 66/24/127 50/18/128 67/21/129
f 67/21/130 50/18/131 49/17/132
f 57/8/133 58/14/134 43/2/135
f 43/2/136 58/14/137 42/9/138
f 61/49/139 54/46/140 62/47/141
f 62/47/142 54/46/143 53/40/144
f 55/34/145 56/39/146 47/43/147
f 47/110/148 56/105/149 48/108/150
f 58/14/151 57/8/152 50/18/153
f 50/18/154 57/8/155 49/17/156
f 59/13/157 60/12/158 68/19/159
f 68/19/160 60/12/161 69/20/162
f 10/83/163 3/84/164 29/85/165
f 29/85/166 3/84/167 31/87/168
f 14/59/169 19/60/170 34/61/171
f 34/61/172 19/60/173 35/62/174
f 24/101/175 42/102/176 4/103/177
f 4/103/178 42/102/179 58/104/180
f 23/16/181 11/10/182 44/5/183
f 44/5/184 11/10/185 27/3/186
f 28/1/187 30/4/188 43/2/189
f 43/2/190 30/4/191 57/8/192
f 22/33/193 55/34/194 9/35/195
f 9/35/196 55/34/197 25/37/198
f 38/50/199 16/52/200 45/48/201
f 45/48/202 16/52/203 13/54/204
f 18/120/205 6/117/206 37/118/207
f 37/118/208 6/117/209 41/115/210
f 51/25/211 33/27/212 40/23/213
f 40/23/214 33/27/215 36/28/216
f 15/100/217 32/99/218 1/97/219
f 1/97/220 32/99/221 52/96/222
f 47/43/223 63/45/224 53/40/225
f 53/40/226 63/45/227 62/47/228
f 65/114/229 5/109/230 66/111/231
f 66/111/232 5/109/233 50/106/234
f 59/13/235 68/19/236 49/17/237
f 49/17/238 68/19/239 67/21/240
f 70/94/241 69/93/242 2/91/243
f 2/91/244 69/93/245 60/90/246
f 47/43/247 53/40/248 55/34/249
f 55/34/250 53/40/251 25/37/252
f 5/109/253 4/103/254 50/106/255
f 50/106/256 4/103/257 58/104/258
f 30/4/259 59/13/260 57/8/261
f 57/8/262 59/13/263 49/17/264
f 2/91/265 60/90/266 3/84/267
f 3/84/268 60/90/269 31/87/270
f 54/89/271 61/92/272 2/91/273
f 2/91/274 61/92/275 70/94/276
f 26/86/277 54/89/278 3/84/279
f 3/84/280 54/89/281 2/91/282
f 8/88/283 26/86/284 10/83/285
f 10/83/286 26/86/287 3/84/288
f 21/73/289 7/74/290 23/75/291
f 23/75/292 7/74/293 11/76/294
f 20/107/295 24/101/296 56/105/297
f 56/105/298 24/101/299 4/103/300
f 56/105/301 4/103/302 48/108/303
f 48/108/304 4/103/305 5/109/306
f 48/108/307 5/109/308 64/112/309
f 64/112/310 5/109/311 65/114/312
f 39/116/313 6/117/314 17/119/315
f 17/119/316 6/117/317 18/120/318
f 13/54/319 16/52/320 14/57/321
f 14/57/322 16/52/323 19/58/324
f 46/95/325 12/98/326 1/97/327
f 1/97/328 12/98/329 15/100/330
f 7/74/331 9/82/332 8/78/333
f 20/77/334 22/80/335 21/73/336
f 27/3/337 29/6/338 28/1/339
f 32/29/340 34/31/341 33/27/342
f 35/32/343 37/30/344 36/28/345
f 42/9/346 44/5/347 43/2/348
f 61/49/349 62/47/350 46/51/351
f 46/51/352 62/47/353 45/48/354
f 38/50/355 45/48/356 63/45/357
f 63/45/358 45/48/359 62/47/360
f 38/50/361 63/45/362 39/53/363
f 39/53/364 63/45/365 64/55/366
f 64/112/367 65/114/368 39/116/369
f 39/116/370 65/114/371 6/117/372
f 6/117/373 65/114/374 41/115/375
f 41/115/376 65/114/377 66/111/378
f 66/24/379 67/21/380 41/26/381
f 41/26/382 67/21/383 40/23/384
f 51/25/385 40/23/386 68/19/387
f 68/19/388 40/23/389 67/21/390
f 51/25/391 68/19/392 52/22/393
f 52/22/394 68/19/395 69/20/396
f 1/97/397 52/96/398 70/94/399
f 70/94/400 52/96/401 69/93/402
f 61/92/403 46/95/404 70/94/405
f 70/94/406 46/95/407 1/97/408
